<svg width="321" height="321" viewBox="0 0 321 321" fill="none" xmlns="http://www.w3.org/2000/svg">
<circle cx="160.5" cy="160.5" r="160.5" fill="white"/>
<path d="M273 160C273 222.408 222.408 273 160 273C97.5918 273 47 222.408 47 160C47 97.5918 97.5918 47 160 47C222.408 47 273 97.5918 273 160Z" fill="white"/>
<path d="M273 160C273 222.408 222.408 273 160 273C97.5918 273 47 222.408 47 160C47 97.5918 97.5918 47 160 47C222.408 47 273 97.5918 273 160Z" fill="white"/>
<path d="M273 160C273 222.408 222.408 273 160 273C97.5918 273 47 222.408 47 160C47 97.5918 97.5918 47 160 47C222.408 47 273 97.5918 273 160Z" fill="white"/>
<path d="M273 160C273 222.408 222.408 273 160 273C97.5918 273 47 222.408 47 160C47 97.5918 97.5918 47 160 47C222.408 47 273 97.5918 273 160Z" fill="white"/>
<path d="M273 160C273 222.408 222.408 273 160 273C97.5918 273 47 222.408 47 160C47 97.5918 97.5918 47 160 47C222.408 47 273 97.5918 273 160Z" stroke="#00BE3C" stroke-width="4"/>
<path fill-rule="evenodd" clip-rule="evenodd" d="M258.788 105.508C257.283 102.749 255.65 100.03 253.89 97.3585C219.553 45.2458 149.471 30.8357 97.3586 65.1728C45.2458 99.51 30.8357 169.591 65.1729 221.704C66.9332 224.376 68.7875 226.948 70.7285 229.42C42.8662 178.365 58.3713 113.615 107.812 81.0384C157.254 48.4617 222.868 59.762 258.788 105.508Z" fill="#E4E4E4"/>
<path d="M273 160C273 222.408 222.408 273 160 273C97.5918 273 47 222.408 47 160C47 97.5918 97.5918 47 160 47C222.408 47 273 97.5918 273 160Z" stroke="#00BE3C" stroke-width="4"/>
<path d="M120.476 133.708C121.618 130.078 123.598 126.925 125.941 123.969C126.577 123.167 126.937 122.766 127.686 121.993C132.017 117.523 137.069 114.101 142.735 111.555C144.072 110.954 145.197 110.476 146.626 109.962C155.279 106.843 166.016 106.715 174.077 111.887C176.084 113.174 177.959 114.666 179.957 116.246C182.407 118.931 184.158 120.991 185.867 124.123C188.089 128.195 189.599 132.449 189.349 137.184C188.584 151.68 174.268 161.327 170.474 175.313C168.787 181.534 170.384 187.635 171.936 193.659C172.09 194.259 172.309 194.842 172.515 195.649C173.289 197.924 173.959 200.021 174.82 202.035C177.85 209.121 181.505 215.951 183.523 223.447C184.795 228.175 185.277 232.917 183.784 237.701C183.222 239.501 182.669 240.198 181.485 241.745C179.225 244.7 176.324 246.799 172.944 248.299C169.767 249.708 166.546 250.255 163.172 249.052C159.634 247.79 156.812 245.557 154.66 242.534C151.282 237.791 149.807 232.28 148.541 226.704C147.289 221.197 146.063 215.684 144.789 210.182C143.256 203.566 139.437 196.617 136.337 190.538C133.445 184.867 130.54 179.203 127.617 173.548C121.487 161.69 116.25 147.136 120.476 133.708Z" fill="#00BE3C"/>
<ellipse cx="112.604" cy="123.497" rx="4.68785" ry="7.16965" transform="rotate(7.68137 112.604 123.497)" fill="#00BE3C"/>
<ellipse cx="123.363" cy="110.059" rx="6.23136" ry="9.53031" transform="rotate(7.68137 123.363 110.059)" fill="#00BE3C"/>
<ellipse cx="138.746" cy="97.7792" rx="6.64389" ry="10.1612" transform="rotate(7.68137 138.746 97.7792)" fill="#00BE3C"/>
<ellipse cx="155.964" cy="91.4711" rx="7.66776" ry="11.7272" transform="rotate(7.68137 155.964 91.4711)" fill="#00BE3C"/>
<ellipse cx="180.883" cy="89.5821" rx="13.9735" ry="18.1555" transform="rotate(6.31377 180.883 89.5821)" fill="#00BE3C"/>
</svg>
