
<svg width="840" height="609" viewBox="0 0 840 609" fill="none" xmlns="http://www.w3.org/2000/svg">
<circle cx="431.377" cy="304.334" r="300.542" fill="white" stroke="#B2B2B2" stroke-width="7.58465"/>
<circle cx="430.429" cy="303.386" r="210.474" stroke="#B2B2B2" stroke-width="7.58465"/>
<path d="M826.407 246.364L828.448 33.1131C828.448 33.1131 823.757 18.1915 806.186 33.334C788.018 49.0333 761.596 112.469 789.75 265.204C789.75 265.204 795.106 537.845 788.956 588.044C788.956 588.044 816.638 605.574 840 586.492C840 586.492 813.712 311.046 823.191 266.085C823.996 262.251 826.407 246.364 826.407 246.364Z" fill="#B3B2B2"/>
<path d="M0.987787 153.719L12.7703 29.2157C12.7703 29.2157 16.2511 25.4276 17.856 29.2157L19.196 140.212C19.196 140.212 19.196 146.152 24.5467 146.152C29.9155 146.152 28.0336 142.088 27.7747 140.473C27.4886 138.864 31.2585 28.9212 31.2585 28.9212C31.2585 28.9212 34.7544 24.3378 36.3503 28.6602L39.8281 138.321C39.8281 138.321 39.3072 145.078 45.1909 145.078C45.1909 145.078 48.6687 144.009 47.8588 136.964C47.0668 129.946 47.9822 28.5266 47.9822 28.5266C47.9822 28.5266 50.623 24.6687 53.0258 27.7222L60.0778 138.524C60.0778 138.524 59.858 144.607 64.8866 144.607C69.9031 144.607 68.7017 139.332 68.9155 136.715C69.0751 134.047 67.0998 28.5266 67.0998 28.5266C67.0998 28.5266 69.7074 25.0906 71.9085 27.9165L84.0342 126.174C84.0342 126.174 89.0839 175.543 79.2255 197.975C77.6507 201.496 69.9423 213.091 67.8616 215.109C55.5522 227.086 52.4417 242.248 52.4417 251.503C52.4417 262.287 73.9711 587.542 73.9711 587.542C46.2358 605.211 22.7371 587.542 22.7371 587.542C22.7371 587.542 45.9949 295.536 34.7363 252.556C34.7363 252.556 32.7249 230.301 13.0202 210.841C13.0202 210.841 -4.24552 186.14 0.987787 153.719Z" fill="#B2B2B2"/>
</svg>
